<svg xmlns="http://www.w3.org/2000/svg" viewBox="0 0 100 100">
  <!-- Left upper wing -->
  <path d="M48 50 C35 25, 5 20, 10 45 C5 70, 35 75, 48 55 Z" fill="white" opacity="0.95"/>
  <!-- Left lower wing -->
  <path d="M48 55 C35 60, 15 85, 30 90 C45 85, 48 65, 48 55 Z" fill="white" opacity="0.7"/>
  <!-- Right upper wing -->
  <path d="M52 50 C65 25, 95 20, 90 45 C95 70, 65 75, 52 55 Z" fill="white" opacity="0.95"/>
  <!-- Right lower wing -->
  <path d="M52 55 C65 60, 85 85, 70 90 C55 85, 52 65, 52 55 Z" fill="white" opacity="0.7"/>
  <!-- Body -->
  <ellipse cx="50" cy="55" rx="3" ry="15" fill="white"/>
  <!-- Antennae -->
  <path d="M48 42 Q45 35, 40 30" stroke="white" stroke-width="1.5" fill="none"/>
  <path d="M52 42 Q55 35, 60 30" stroke="white" stroke-width="1.5" fill="none"/>
  <circle cx="40" cy="30" r="2" fill="white"/>
  <circle cx="60" cy="30" r="2" fill="white"/>
</svg>
